<svg id="logosandtypes_com" data-name="logosandtypes com" xmlns="http://www.w3.org/2000/svg" viewBox="0 0 150 150"><defs><style>.cls-1{fill:none;}</style></defs><path class="cls-1" d="M0,0H150V150H0Z"/><path d="M138.32,91.43l-10.52,7.8c-13.35-20.86-31.86-21.4-46-31.4C76.36,64,72.69,55,65.13,50.13l10.52-7.85C81.93,46.21,86.89,56.22,92.3,60c1,.68,2,1.34,3,1.93L106,54c-.42-.27-2.67-1.64-3.08-1.94-8.15-5.74-15.68-22.52-27.66-27.41L42.64,49.17C55.4,57,61.73,71.5,69.88,77.22c14.15,10,32.66,10.54,46,31.4l-13.4,10.29c-13.36-20.86-31.84-21.42-46-31.4-10.89-7.67-16.19-28.82-39-34.79L61.29,19C69,13.84,72.1,8.14,72.1,8.14c25.33,5.9,30.57,28,41.45,35.6,4.84,3.43,10.24,5.7,15.72,8.1L108.07,68.2C118.58,72.79,129.56,77.73,138.32,91.43Z"/><path d="M78.87,142.88c-12.66-23.8-34.3-25.39-48.46-35.36C25,103.7,21.24,95.71,13.78,89.84l14.4-11c4.87,7,10.37,14.94,15.8,18.76,14.16,10,32.67,10.54,46,31.4C90,129,80,137.91,78.87,142.88Z"/></svg>